<svg xmlns="http://www.w3.org/2000/svg" width="600" height="400" viewBox="0 0 600 400">
  <rect width="600" height="400" fill="#F8F9FA"/>
  <g transform="translate(250,180)">
    <path d="M-70,30 L-30,30 L-25,5 L-75,-5 L-70,30" fill="#E31837" />
    <path d="M-75,-5 L-25,5 L70,5 L70,-5 L-75,-5" fill="#E31837" />
    <path d="M70,-5 L70,5 L75,30 L115,30 L110,-5 L70,-5" fill="#E31837" />
    <circle cx="-50" cy="30" r="12" fill="#333" />
    <circle cx="-50" cy="30" r="5" fill="#666" />
    <circle cx="95" cy="30" r="12" fill="#333" />
    <circle cx="95" cy="30" r="5" fill="#666" />
    <rect x="-20" y="-30" width="90" height="35" fill="#E31837" rx="10" />
    <rect x="-15" y="-25" width="80" height="25" fill="#F8F9FA" rx="5" />
    <path d="M20,-50 L-30,-50 L-25,-30 L25,-30 L20,-50" fill="#333" />
    <path d="M-10,-65 L-10,-50 L50,-50 L50,-65 L-10,-65" fill="#333" />
  </g>
  <text x="300" y="260" text-anchor="middle" font-family="Arial" font-size="20" font-weight="bold" fill="#333">Vehicle Sourcing</text>
  <text x="300" y="290" text-anchor="middle" font-family="Arial" font-size="14" fill="#666">We find your dream car</text>
</svg>